<svg xmlns="http://www.w3.org/2000/svg" width="50.182" height="36.8" viewBox="0 0 50.182 36.8"><defs><style>.a{fill:#00b5e2;}</style></defs><path class="a" d="M48,93.621a9.892,9.892,0,0,0-5.58-3.541,6.68,6.68,0,0,0-5.619-10.3A6.388,6.388,0,0,0,32.461,81.4a13.4,13.4,0,0,0-12.389-8.311,12.893,12.893,0,0,0-9.461,3.921,12.89,12.89,0,0,0-3.92,9.461q0,.34.052,1.124A11.688,11.688,0,0,0,0,98.182a11.276,11.276,0,0,0,3.437,8.272,11.274,11.274,0,0,0,8.272,3.437H40.146A10.025,10.025,0,0,0,48,93.621Zm-14.793-.705a.805.805,0,0,1-.588.248H26.763v9.2a.848.848,0,0,1-.836.836H20.908a.848.848,0,0,1-.836-.836v-9.2H14.218a.8.8,0,0,1-.836-.836.983.983,0,0,1,.261-.628l9.174-9.174a.886.886,0,0,1,1.2,0l9.2,9.2a.813.813,0,0,1,.235.6A.8.8,0,0,1,33.206,92.915Z" transform="translate(0 -73.091)"/></svg>